<mxfile host="Electron" modified="2023-12-18T17:27:56.127Z" agent="Mozilla/5.0 (Windows NT 10.0; Win64; x64) AppleWebKit/537.36 (KHTML, like Gecko) draw.io/22.1.2 Chrome/114.0.5735.289 Electron/25.9.4 Safari/537.36" etag="6xa3j0WXNO7NJGuC6GF1" version="22.1.2" type="device">
  <diagram name="PÃ¡gina-1" id="rDKIrXFhivbQDyGNRBQO">
    <mxGraphModel dx="1100" dy="910" grid="1" gridSize="10" guides="1" tooltips="1" connect="1" arrows="1" fold="1" page="1" pageScale="1" pageWidth="827" pageHeight="1169" math="0" shadow="0">
      <root>
        <mxCell id="0" />
        <mxCell id="1" parent="0" />
        <mxCell id="XYqVRCQEBnFazSdVujPv-14" style="edgeStyle=orthogonalEdgeStyle;rounded=0;orthogonalLoop=1;jettySize=auto;html=1;strokeWidth=4;" edge="1" parent="1" source="XYqVRCQEBnFazSdVujPv-2">
          <mxGeometry relative="1" as="geometry">
            <mxPoint x="414" y="140" as="targetPoint" />
            <Array as="points">
              <mxPoint x="239" y="140" />
            </Array>
          </mxGeometry>
        </mxCell>
        <mxCell id="XYqVRCQEBnFazSdVujPv-15" style="edgeStyle=orthogonalEdgeStyle;rounded=0;orthogonalLoop=1;jettySize=auto;html=1;strokeWidth=4;" edge="1" parent="1" source="XYqVRCQEBnFazSdVujPv-2">
          <mxGeometry relative="1" as="geometry">
            <mxPoint x="414" y="580" as="targetPoint" />
            <Array as="points">
              <mxPoint x="239" y="580" />
            </Array>
          </mxGeometry>
        </mxCell>
        <mxCell id="XYqVRCQEBnFazSdVujPv-17" style="edgeStyle=orthogonalEdgeStyle;rounded=0;orthogonalLoop=1;jettySize=auto;html=1;startArrow=classic;startFill=1;endArrow=none;endFill=0;strokeWidth=4;" edge="1" parent="1" source="XYqVRCQEBnFazSdVujPv-2">
          <mxGeometry relative="1" as="geometry">
            <mxPoint x="44" y="360" as="targetPoint" />
          </mxGeometry>
        </mxCell>
        <mxCell id="XYqVRCQEBnFazSdVujPv-2" value="" style="shape=mxgraph.pid.vessels.tank;html=1;pointerEvents=1;align=center;verticalLabelPosition=bottom;verticalAlign=top;dashed=0;strokeWidth=4;" vertex="1" parent="1">
          <mxGeometry x="184" y="220" width="110" height="280" as="geometry" />
        </mxCell>
        <mxCell id="XYqVRCQEBnFazSdVujPv-5" style="edgeStyle=none;rounded=0;orthogonalLoop=1;jettySize=auto;html=1;exitX=0;exitY=0.5;exitDx=0;exitDy=0;exitPerimeter=0;entryX=1;entryY=0.5;entryDx=0;entryDy=0;entryPerimeter=0;endArrow=none;endFill=0;" edge="1" parent="1" source="XYqVRCQEBnFazSdVujPv-2" target="XYqVRCQEBnFazSdVujPv-2">
          <mxGeometry relative="1" as="geometry" />
        </mxCell>
        <mxCell id="XYqVRCQEBnFazSdVujPv-6" value="p,T" style="text;strokeColor=none;align=center;fillColor=none;html=1;verticalAlign=middle;whiteSpace=wrap;rounded=0;fontSize=24;" vertex="1" parent="1">
          <mxGeometry x="209" y="310" width="60" height="30" as="geometry" />
        </mxCell>
        <mxCell id="XYqVRCQEBnFazSdVujPv-7" value="V" style="text;strokeColor=none;align=center;fillColor=none;html=1;verticalAlign=middle;whiteSpace=wrap;rounded=0;fontSize=24;" vertex="1" parent="1">
          <mxGeometry x="314" y="90" width="60" height="30" as="geometry" />
        </mxCell>
        <mxCell id="XYqVRCQEBnFazSdVujPv-8" value="x&lt;sub&gt;i&lt;/sub&gt;" style="text;strokeColor=none;align=center;fillColor=none;html=1;verticalAlign=middle;whiteSpace=wrap;rounded=0;fontSize=24;" vertex="1" parent="1">
          <mxGeometry x="314" y="150" width="60" height="50" as="geometry" />
        </mxCell>
        <mxCell id="XYqVRCQEBnFazSdVujPv-9" value="L" style="text;strokeColor=none;align=center;fillColor=none;html=1;verticalAlign=middle;whiteSpace=wrap;rounded=0;fontSize=24;" vertex="1" parent="1">
          <mxGeometry x="314" y="530" width="60" height="30" as="geometry" />
        </mxCell>
        <mxCell id="XYqVRCQEBnFazSdVujPv-10" value="y&lt;sub&gt;i&lt;/sub&gt;" style="text;strokeColor=none;align=center;fillColor=none;html=1;verticalAlign=middle;whiteSpace=wrap;rounded=0;fontSize=24;" vertex="1" parent="1">
          <mxGeometry x="314" y="590" width="60" height="50" as="geometry" />
        </mxCell>
        <mxCell id="XYqVRCQEBnFazSdVujPv-16" value="" style="edgeStyle=none;orthogonalLoop=1;jettySize=auto;html=1;rounded=0;" edge="1" parent="1">
          <mxGeometry width="80" relative="1" as="geometry">
            <mxPoint x="214" y="510" as="sourcePoint" />
            <mxPoint x="294" y="510" as="targetPoint" />
            <Array as="points" />
          </mxGeometry>
        </mxCell>
        <mxCell id="XYqVRCQEBnFazSdVujPv-18" value="F" style="text;strokeColor=none;align=center;fillColor=none;html=1;verticalAlign=middle;whiteSpace=wrap;rounded=0;fontSize=24;" vertex="1" parent="1">
          <mxGeometry x="84" y="310" width="60" height="30" as="geometry" />
        </mxCell>
        <mxCell id="XYqVRCQEBnFazSdVujPv-19" value="z&lt;sub&gt;i&lt;/sub&gt;" style="text;strokeColor=none;align=center;fillColor=none;html=1;verticalAlign=middle;whiteSpace=wrap;rounded=0;fontSize=24;" vertex="1" parent="1">
          <mxGeometry x="84" y="370" width="60" height="50" as="geometry" />
        </mxCell>
        <mxCell id="XYqVRCQEBnFazSdVujPv-47" style="edgeStyle=orthogonalEdgeStyle;rounded=0;orthogonalLoop=1;jettySize=auto;html=1;strokeWidth=4;strokeColor=#000000;fontColor=#000000;" edge="1" source="XYqVRCQEBnFazSdVujPv-50" parent="1">
          <mxGeometry relative="1" as="geometry">
            <mxPoint x="810" y="140" as="targetPoint" />
            <Array as="points">
              <mxPoint x="635" y="140" />
            </Array>
          </mxGeometry>
        </mxCell>
        <mxCell id="XYqVRCQEBnFazSdVujPv-48" style="edgeStyle=orthogonalEdgeStyle;rounded=0;orthogonalLoop=1;jettySize=auto;html=1;strokeWidth=4;strokeColor=#000000;fontColor=#000000;" edge="1" source="XYqVRCQEBnFazSdVujPv-50" parent="1">
          <mxGeometry relative="1" as="geometry">
            <mxPoint x="810" y="580" as="targetPoint" />
            <Array as="points">
              <mxPoint x="635" y="580" />
            </Array>
          </mxGeometry>
        </mxCell>
        <mxCell id="XYqVRCQEBnFazSdVujPv-49" style="edgeStyle=orthogonalEdgeStyle;rounded=0;orthogonalLoop=1;jettySize=auto;html=1;startArrow=classic;startFill=1;endArrow=none;endFill=0;strokeWidth=4;strokeColor=#000000;fontColor=#000000;" edge="1" source="XYqVRCQEBnFazSdVujPv-50" parent="1">
          <mxGeometry relative="1" as="geometry">
            <mxPoint x="440" y="360" as="targetPoint" />
          </mxGeometry>
        </mxCell>
        <mxCell id="XYqVRCQEBnFazSdVujPv-50" value="" style="shape=mxgraph.pid.vessels.tank;html=1;pointerEvents=1;align=center;verticalLabelPosition=bottom;verticalAlign=top;dashed=0;strokeWidth=4;strokeColor=#000000;fontColor=#000000;" vertex="1" parent="1">
          <mxGeometry x="580" y="220" width="110" height="280" as="geometry" />
        </mxCell>
        <mxCell id="XYqVRCQEBnFazSdVujPv-51" style="edgeStyle=none;rounded=0;orthogonalLoop=1;jettySize=auto;html=1;exitX=0;exitY=0.5;exitDx=0;exitDy=0;exitPerimeter=0;entryX=1;entryY=0.5;entryDx=0;entryDy=0;entryPerimeter=0;endArrow=none;endFill=0;strokeColor=#000000;fontColor=#000000;" edge="1" source="XYqVRCQEBnFazSdVujPv-50" target="XYqVRCQEBnFazSdVujPv-50" parent="1">
          <mxGeometry relative="1" as="geometry" />
        </mxCell>
        <mxCell id="XYqVRCQEBnFazSdVujPv-52" value="p,T" style="text;strokeColor=#000000;align=center;fillColor=none;html=1;verticalAlign=middle;whiteSpace=wrap;rounded=0;fontSize=24;fontColor=#000000;" vertex="1" parent="1">
          <mxGeometry x="605" y="310" width="60" height="30" as="geometry" />
        </mxCell>
        <mxCell id="XYqVRCQEBnFazSdVujPv-53" value="V" style="text;strokeColor=#000000;align=center;fillColor=none;html=1;verticalAlign=middle;whiteSpace=wrap;rounded=0;fontSize=24;fontColor=#000000;" vertex="1" parent="1">
          <mxGeometry x="710" y="90" width="60" height="30" as="geometry" />
        </mxCell>
        <mxCell id="XYqVRCQEBnFazSdVujPv-54" value="x&lt;sub&gt;i&lt;/sub&gt;" style="text;strokeColor=#000000;align=center;fillColor=none;html=1;verticalAlign=middle;whiteSpace=wrap;rounded=0;fontSize=24;fontColor=#000000;" vertex="1" parent="1">
          <mxGeometry x="710" y="150" width="60" height="50" as="geometry" />
        </mxCell>
        <mxCell id="XYqVRCQEBnFazSdVujPv-55" value="L" style="text;strokeColor=#000000;align=center;fillColor=none;html=1;verticalAlign=middle;whiteSpace=wrap;rounded=0;fontSize=24;fontColor=#000000;" vertex="1" parent="1">
          <mxGeometry x="710" y="530" width="60" height="30" as="geometry" />
        </mxCell>
        <mxCell id="XYqVRCQEBnFazSdVujPv-56" value="y&lt;sub&gt;i&lt;/sub&gt;" style="text;strokeColor=#000000;align=center;fillColor=none;html=1;verticalAlign=middle;whiteSpace=wrap;rounded=0;fontSize=24;fontColor=#000000;" vertex="1" parent="1">
          <mxGeometry x="710" y="590" width="60" height="50" as="geometry" />
        </mxCell>
        <mxCell id="XYqVRCQEBnFazSdVujPv-57" value="" style="edgeStyle=none;orthogonalLoop=1;jettySize=auto;html=1;rounded=0;strokeColor=#000000;fontColor=#000000;" edge="1" parent="1">
          <mxGeometry width="80" relative="1" as="geometry">
            <mxPoint x="610" y="510" as="sourcePoint" />
            <mxPoint x="690" y="510" as="targetPoint" />
            <Array as="points" />
          </mxGeometry>
        </mxCell>
        <mxCell id="XYqVRCQEBnFazSdVujPv-58" value="F" style="text;strokeColor=#000000;align=center;fillColor=none;html=1;verticalAlign=middle;whiteSpace=wrap;rounded=0;fontSize=24;fontColor=#000000;" vertex="1" parent="1">
          <mxGeometry x="480" y="310" width="60" height="30" as="geometry" />
        </mxCell>
        <mxCell id="XYqVRCQEBnFazSdVujPv-59" value="z&lt;sub&gt;i&lt;/sub&gt;" style="text;strokeColor=#000000;align=center;fillColor=none;html=1;verticalAlign=middle;whiteSpace=wrap;rounded=0;fontSize=24;fontColor=#000000;" vertex="1" parent="1">
          <mxGeometry x="480" y="370" width="60" height="50" as="geometry" />
        </mxCell>
      </root>
    </mxGraphModel>
  </diagram>
</mxfile>
